<svg xmlns="http://www.w3.org/2000/svg"  viewBox="0 0 64 64" width="64px" height="64px"><path d="M 14.419922 3 A 3.42 3.42 0 0 0 11 6.4199219 L 11 34 L 8 34 A 1 1 0 0 0 7 35 L 7 49 L 7 49.070312 A 1.08 1.08 0 0 0 7.3398438 49.75 L 7.3398438 49.800781 L 11 52.5 L 11 57.580078 A 3.42 3.42 0 0 0 14.419922 61 L 49.580078 61 A 3.42 3.42 0 0 0 53 57.580078 L 53 52.5 L 56.599609 49.800781 L 56.599609 49.75 A 1.08 1.08 0 0 0 56.939453 49.070312 L 56.939453 49 L 57 35 A 1 1 0 0 0 56 34 L 53 34 L 53 16 L 53 15.939453 A 1 1 0 0 0 53 15.730469 L 53 15.660156 A 1 1 0 0 0 52.820312 15.369141 L 41.820312 3.3691406 A 1 1 0 0 0 41.529297 3.1601562 L 41.470703 3.1601562 A 1 1 0 0 0 41.109375 3 L 14.419922 3 z M 14.419922 5 L 19 5 L 19 34 L 13 34 L 13 6.4199219 A 1.42 1.42 0 0 1 14.419922 5 z M 21 5 L 40 5 L 40 16 A 1 1 0 0 0 41 17 L 51 17 L 51 34 L 21 34 L 21 5 z M 42 6.5703125 L 49.730469 15 L 42 15 L 42 6.5703125 z M 9 36 L 55 36 L 55 48 L 9 48 L 9 36 z M 29.433594 39.376953 A 1.05 1.05 0 0 0 29.029297 39.480469 A 0.87 0.87 0 0 0 28.740234 39.75 A 2.12 2.12 0 0 0 28.529297 40.169922 L 28.359375 40.599609 L 26.710938 44.779297 C 26.640937 44.949297 26.560547 45.079922 26.560547 45.169922 A 0.91 0.91 0 0 0 26.560547 45.439453 A 0.55 0.55 0 0 0 26.75 45.849609 A 0.61 0.61 0 0 0 27.189453 46.029297 A 0.49 0.49 0 0 0 27.609375 45.859375 A 2.9 2.9 0 0 0 27.919922 45.210938 L 28.230469 44.380859 L 30.839844 44.380859 L 31.150391 45.189453 L 31.259766 45.550781 A 1.34 1.34 0 0 0 31.419922 45.839844 A 0.54 0.54 0 0 0 31.599609 45.990234 A 0.58 0.58 0 0 0 31.859375 46.050781 A 0.61 0.61 0 0 0 32.310547 45.859375 A 0.57 0.57 0 0 0 32.5 45.449219 A 2.09 2.09 0 0 0 32.300781 44.759766 L 30.619141 40.599609 L 30.419922 40.099609 A 1.93 1.93 0 0 0 30.230469 39.75 A 0.9 0.9 0 0 0 29.939453 39.480469 A 1.05 1.05 0 0 0 29.433594 39.376953 z M 15.169922 39.417969 A 0.68 0.68 0 0 0 14.550781 40.230469 L 14.550781 45.230469 A 0.9 0.9 0 0 0 14.720703 45.820312 A 0.6 0.6 0 0 0 15.199219 46.019531 A 0.61 0.61 0 0 0 15.669922 45.830078 A 0.86 0.86 0 0 0 15.849609 45.230469 L 15.849609 43.160156 L 16.310547 43.160156 A 1.53 1.53 0 0 1 16.880859 43.160156 A 1.24 1.24 0 0 1 17.330078 43.5 A 4.8 4.8 0 0 1 17.830078 44.230469 L 18.349609 45.099609 L 18.640625 45.570312 A 1 1 0 0 0 18.900391 45.830078 A 0.64 0.64 0 0 0 19.269531 45.929688 A 0.69 0.69 0 0 0 19.599609 45.859375 A 0.56 0.56 0 0 0 19.820312 45.660156 A 0.47 0.47 0 0 0 19.900391 45.410156 A 1.44 1.44 0 0 0 19.759766 44.960938 A 5.69 5.69 0 0 0 19.369141 44.230469 A 5.6 5.6 0 0 0 18.810547 43.460938 A 2.39 2.39 0 0 0 18.150391 42.919922 A 2.34 2.34 0 0 0 19.380859 42.310547 A 1.61 1.61 0 0 0 19.789062 41.160156 A 1.83 1.83 0 0 0 19.669922 40.490234 A 1.6 1.6 0 0 0 19.320312 39.939453 A 1.63 1.63 0 0 0 18.779297 39.580078 A 1.9 1.9 0 0 0 18.220703 39.429688 A 6.35 6.35 0 0 0 17.470703 39.429688 L 15.349609 39.429688 A 0.68 0.68 0 0 0 15.169922 39.417969 z M 34.177734 39.466797 A 0.68 0.68 0 0 0 33.490234 40.279297 L 33.490234 45 A 1.93 1.93 0 0 0 33.539062 45.509766 A 0.5 0.5 0 0 0 33.779297 45.810547 A 1.06 1.06 0 0 0 34.320312 45.919922 L 36.019531 45.919922 A 5 5 0 0 0 36.820312 45.859375 A 2.57 2.57 0 0 0 37.480469 45.660156 A 2.24 2.24 0 0 0 38.050781 45.289062 A 2.66 2.66 0 0 0 38.589844 44.599609 A 3.11 3.11 0 0 0 38.900391 43.740234 A 5.13 5.13 0 0 0 39 42.679688 A 3.26 3.26 0 0 0 38 40.060547 A 2.09 2.09 0 0 0 37.140625 39.599609 A 4.59 4.59 0 0 0 36 39.480469 L 34.310547 39.480469 L 34.289062 39.480469 A 0.68 0.68 0 0 0 34.177734 39.466797 z M 45.044922 39.46875 A 1.54 1.54 0 0 0 44.589844 39.539062 A 0.44 0.44 0 0 0 44.349609 39.779297 A 3.69 3.69 0 0 0 44.169922 40.339844 L 43.230469 43.869141 L 42.289062 40.339844 A 3.69 3.69 0 0 0 42.109375 39.779297 A 0.44 0.44 0 0 0 41.869141 39.539062 A 1.54 1.54 0 0 0 41.339844 39.470703 L 40.939453 39.470703 A 1.06 1.06 0 0 0 40.349609 39.619141 A 0.64 0.64 0 0 0 40.130859 40.189453 L 40.130859 45.289062 A 0.8 0.8 0 0 0 40.300781 45.849609 A 0.6 0.6 0 0 0 41.169922 45.849609 A 0.81 0.81 0 0 0 41.339844 45.300781 L 41.339844 40.849609 L 42.339844 44.949219 L 42.490234 45.330078 A 1.44 1.44 0 0 0 42.630859 45.669922 A 0.69 0.69 0 0 0 43.259766 46.019531 A 0.69 0.69 0 0 0 43.730469 45.869141 A 0.82 0.82 0 0 0 43.970703 45.529297 C 44.010703 45.399297 44.060859 45.209453 44.130859 44.939453 L 45.130859 40.839844 L 45.130859 45.289062 A 0.8 0.8 0 0 0 45.300781 45.839844 A 0.55 0.55 0 0 0 45.730469 46.019531 A 0.56 0.56 0 0 0 46.169922 45.839844 A 0.81 0.81 0 0 0 46.330078 45.289062 L 46.330078 40.189453 A 0.64 0.64 0 0 0 46.109375 39.619141 A 1.06 1.06 0 0 0 45.519531 39.470703 L 45.119141 39.470703 A 1.54 1.54 0 0 0 45.044922 39.46875 z M 21.8125 39.478516 A 1.13 1.13 0 0 0 21.369141 39.560547 A 0.52 0.52 0 0 0 21.109375 39.820312 A 1.09 1.09 0 0 0 21.029297 40.279297 L 21.029297 45.060547 A 0.68 0.68 0 0 0 21.830078 45.859375 L 25.330078 45.859375 A 0.66 0.66 0 0 0 25.789062 45.720703 A 0.48 0.48 0 0 0 25.949219 45.349609 A 0.49 0.49 0 0 0 25.789062 44.970703 A 0.67 0.67 0 0 0 25.330078 44.830078 L 22.330078 44.830078 L 22.330078 43 L 25 43 A 0.63 0.63 0 0 0 25.449219 42.900391 A 0.47 0.47 0 0 0 25.599609 42.539062 A 0.45 0.45 0 0 0 25.449219 42.189453 A 0.64 0.64 0 0 0 25 42.060547 L 22.330078 42.060547 L 22.330078 40.480469 L 25.269531 40.480469 A 0.67 0.67 0 0 0 25.740234 40.349609 A 0.47 0.47 0 0 0 25.890625 39.980469 A 0.47 0.47 0 0 0 25.740234 39.619141 A 0.66 0.66 0 0 0 25.279297 39.480469 L 21.830078 39.480469 A 1.13 1.13 0 0 0 21.8125 39.478516 z M 48.441406 39.478516 A 1.13 1.13 0 0 0 48 39.560547 A 0.52 0.52 0 0 0 47.740234 39.820312 A 1.09 1.09 0 0 0 47.660156 40.279297 L 47.660156 45.099609 A 0.68 0.68 0 0 0 48.460938 45.900391 L 52 45.900391 A 0.66 0.66 0 0 0 52.460938 45.759766 A 0.48 0.48 0 0 0 52.619141 45.390625 A 0.49 0.49 0 0 0 52.460938 45.009766 A 0.67 0.67 0 0 0 52 44.869141 L 49 44.869141 L 49 43.039062 L 51.710938 43.039062 A 0.63 0.63 0 0 0 52.160156 42.900391 A 0.47 0.47 0 0 0 52.310547 42.539062 A 0.45 0.45 0 0 0 52.160156 42.189453 A 0.64 0.64 0 0 0 51.710938 42.060547 L 49 42.060547 L 49 40.480469 L 51.910156 40.480469 A 0.67 0.67 0 0 0 52.369141 40.349609 A 0.47 0.47 0 0 0 52.519531 39.980469 A 0.47 0.47 0 0 0 52.369141 39.619141 A 0.66 0.66 0 0 0 51.910156 39.480469 L 48.460938 39.480469 A 1.13 1.13 0 0 0 48.441406 39.478516 z M 15.859375 40.449219 L 17.060547 40.449219 L 17.060547 40.460938 A 2.72 2.72 0 0 1 17.939453 40.539062 A 0.81 0.81 0 0 1 18.449219 41.320312 A 0.8 0.8 0 0 1 18.279297 41.859375 A 0.93 0.93 0 0 1 17.789062 42.140625 A 3.31 3.31 0 0 1 17 42.220703 L 15.859375 42.220703 L 15.859375 40.449219 z M 34.820312 40.480469 L 35.699219 40.490234 A 3.52 3.52 0 0 1 36.699219 40.619141 A 1.28 1.28 0 0 1 37.410156 41.220703 A 2.81 2.81 0 0 1 37.699219 42.650391 A 2.38 2.38 0 0 1 37.050781 44.560547 A 1 1 0 0 1 36.710938 44.759766 A 1.59 1.59 0 0 1 36.330078 44.849609 L 35.820312 44.849609 L 34.820312 44.849609 L 34.820312 40.480469 z M 29.5 40.740234 L 30.5 43.400391 L 28.570312 43.400391 L 29.5 40.740234 z M 12.453125 44.708984 A 0.63 0.63 0 0 0 12 44.900391 A 0.64 0.64 0 0 0 11.779297 45.330078 A 0.62 0.62 0 0 0 11.980469 45.820312 A 0.68 0.68 0 0 0 12.449219 46 A 0.66 0.66 0 0 0 12.939453 45.900391 A 0.68 0.68 0 0 0 12.939453 44.900391 A 0.65 0.65 0 0 0 12.470703 44.710938 A 0.63 0.63 0 0 0 12.453125 44.708984 z M 13 50 L 19 50 L 19 59 L 14.419922 59 A 1.42 1.42 0 0 1 13 57.580078 L 13 50 z M 21 50 L 51 50 L 51 57.580078 A 1.42 1.42 0 0 1 49.580078 59 L 21 59 L 21 50 z"/></svg>