<svg xmlns="http://www.w3.org/2000/svg"  viewBox="0 0 128 128" width="64px" height="64px"><path fill="#e6e7e8" d="M110.327,21.145a5.006,5.006,0,0,0-5-5H79.056L74.241,6.408a1.041,1.041,0,0,0-1.793,0l-4.814,9.737H34.075a5.006,5.006,0,0,0-5,5v3.808H26.127a4.455,4.455,0,1,0,0,8.909h2.948v5.11H26.127a4.455,4.455,0,0,0,0,8.91h2.948v5.111H26.127a4.454,4.454,0,1,0,0,8.908h2.948v5.111H26.127a4.455,4.455,0,1,0,0,8.909h2.948v5.111H26.127a4.454,4.454,0,1,0,0,8.908h2.948v5.112H26.127a4.455,4.455,0,1,0,0,8.909h2.948v4.425H26.127a4.455,4.455,0,1,0,0,8.909h2.948V121.1a5.006,5.006,0,0,0,5,5h71.252a5.006,5.006,0,0,0,5-5Z"/><rect width="79.252" height="107.957" x="26.075" y="13.145" fill="#d4fbff" rx="4" ry="4"/><path fill="#fff" d="M101.327,13.145H30.075a4,4,0,0,0-4,4v3a4,4,0,0,1,4-4h71.252a4,4,0,0,1,4,4v-3A4,4,0,0,0,101.327,13.145Z"/><rect width="14.805" height="6.909" x="18.673" y="21.953" fill="#0089ef" rx="3.454" ry="3.454"/><rect width="14.805" height="6.909" x="18.673" y="35.973" fill="#0089ef" rx="3.454" ry="3.454"/><rect width="14.805" height="6.909" x="18.673" y="49.992" fill="#0089ef" rx="3.454" ry="3.454"/><rect width="14.805" height="6.909" x="18.673" y="64.012" fill="#0089ef" rx="3.454" ry="3.454"/><rect width="14.805" height="6.909" x="18.673" y="78.032" fill="#0089ef" rx="3.454" ry="3.454"/><rect width="14.805" height="6.909" x="18.673" y="92.051" fill="#0089ef" rx="3.454" ry="3.454"/><rect width="14.805" height="6.909" x="18.673" y="105.386" fill="#0089ef" rx="3.454" ry="3.454"/><polygon fill="#d4fbff" points="44.345 53.416 69.345 2.851 94.345 53.416 44.345 53.416"/><polygon fill="#6dc9f7" points="62.954 53.416 69.345 2.851 75.736 53.416 69.345 62.721 62.954 53.416"/><polygon fill="#0089ef" points="69.345 2.851 75.736 53.416 69.345 62.721 69.345 2.851"/><path fill="#3a2c60" d="M101.327,12.145H75.055L70.241,2.408a1.041,1.041,0,0,0-1.793,0l-4.814,9.737H30.075a5.006,5.006,0,0,0-5,5v3.808H22.127a4.455,4.455,0,0,0,0,8.909h2.948v5.11H22.127a4.455,4.455,0,0,0,0,8.91h2.948v5.11H22.127a4.455,4.455,0,0,0,0,8.909h2.948v5.111H22.127a4.455,4.455,0,0,0,0,8.909h2.948v5.111H22.127a4.454,4.454,0,1,0,0,8.908h2.948v5.112H22.127a4.455,4.455,0,0,0,0,8.909h2.948v4.425H22.127a4.455,4.455,0,0,0,0,8.909h2.948V117.1a5.006,5.006,0,0,0,5,5h71.252a5.006,5.006,0,0,0,5-5V46.374a1,1,0,1,0-2,0V117.1a3,3,0,0,1-3,3H30.075a3,3,0,0,1-3-3V113.3h2.948a4.455,4.455,0,0,0,0-8.909H27.075V99.961h2.948a4.455,4.455,0,0,0,0-8.909H27.075V85.94h2.948a4.454,4.454,0,0,0,0-8.908H27.075V71.921h2.948a4.455,4.455,0,0,0,0-8.909H27.075V57.9h2.948a4.455,4.455,0,0,0,0-8.909H27.075v-5.11h2.948a4.455,4.455,0,0,0,0-8.91H27.075v-5.11h2.948a4.455,4.455,0,0,0,0-8.909H27.075V17.145a3,3,0,0,1,3-3h32.57l-19.2,38.827a1,1,0,0,0,.9,1.444H62.428l6.092,8.871a1,1,0,0,0,1.649,0l6.094-8.871H94.345a1,1,0,0,0,.9-1.444l-19.2-38.827h25.283a3,3,0,0,1,3,3V28.862a1,1,0,0,0,2,0V17.145A5.006,5.006,0,0,0,101.327,12.145Zm-68.85,96.7a2.457,2.457,0,0,1-2.454,2.454h-7.9a2.455,2.455,0,0,1,0-4.909h7.9A2.457,2.457,0,0,1,32.477,108.841Zm0-13.335a2.458,2.458,0,0,1-2.454,2.455h-7.9a2.455,2.455,0,0,1,0-4.909h7.9A2.456,2.456,0,0,1,32.477,95.506Zm0-14.02a2.456,2.456,0,0,1-2.454,2.454h-7.9a2.454,2.454,0,1,1,0-4.908h7.9A2.457,2.457,0,0,1,32.477,81.486Zm0-14.019a2.457,2.457,0,0,1-2.454,2.454h-7.9a2.455,2.455,0,0,1,0-4.909h7.9A2.457,2.457,0,0,1,32.477,67.467Zm0-14.02A2.456,2.456,0,0,1,30.023,55.9h-7.9a2.455,2.455,0,0,1,0-4.909h7.9A2.458,2.458,0,0,1,32.477,53.447Zm0-14.02a2.457,2.457,0,0,1-2.454,2.455h-7.9a2.455,2.455,0,0,1,0-4.91h7.9A2.458,2.458,0,0,1,32.477,39.427Zm0-14.019a2.457,2.457,0,0,1-2.454,2.454h-7.9a2.455,2.455,0,0,1,0-4.909h7.9A2.457,2.457,0,0,1,32.477,25.408ZM67.607,8.621,62.072,52.416H45.955Zm.738,10.118V59.5l-4.351-6.334Zm2,40.759V18.737L74.7,53.164Zm6.273-7.082L71.082,8.621,92.734,52.416Z"/><path fill="#3a2c60" d="M105.327,31.972a1,1,0,0,0-1,1v9.652a1,1,0,0,0,2,0V32.972A1,1,0,0,0,105.327,31.972Z"/><path fill="#3a2c60" d="M93.419,81.046H45.271a1,1,0,0,0,0,2H93.419a1,1,0,0,0,0-2Z"/><path fill="#3a2c60" d="M75.2,70.935V64.846a1,1,0,1,0-2,0v6.089a1,1,0,0,0,2,0Z"/><path fill="#3a2c60" d="M70.345,73.466v-6.62a1,1,0,0,0-2,0v6.62a1,1,0,0,0,2,0Z"/><path fill="#3a2c60" d="M65.489,70.935V64.846a1,1,0,1,0-2,0v6.089a1,1,0,1,0,2,0Z"/><path fill="#3a2c60" d="M93.419,92.767H45.271a1,1,0,0,0,0,2H93.419a1,1,0,0,0,0-2Z"/><path fill="#3a2c60" d="M93.419,104.489H45.271a1,1,0,1,0,0,2H93.419a1,1,0,1,0,0-2Z"/></svg>