<svg xmlns="http://www.w3.org/2000/svg"  viewBox="0 0 4335 4335" width="67px" height="67px" fill-rule="evenodd" clip-rule="evenodd" image-rendering="optimizeQuality" shape-rendering="geometricPrecision" text-rendering="geometricPrecision"><path fill="#2b2a29" d="M183 4202c0,0 410,-718 882,-1204 427,-440 435,-108 915,-347 -130,-76 -188,-166 -188,-166l438 17c205,-138 419,-310 626,-496 -140,-78 -203,-175 -203,-175l375 14c332,-319 628,-663 806,-942 -115,-73 -167,-153 -167,-153l252 10c272,-472 346,-579 211,-590 -93,-8 -359,-102 -882,94l-182 445c0,0 -83,-128 -77,-333 -214,104 -462,252 -747,461 -376,275 -641,511 -830,714l-182 445c0,0 -35,-54 -58,-148 -199,292 -228,500 -256,659 -52,301 -52,301 -52,301l-785 1312c0,0 -69,247 102,82z"/></svg>